HIERARCHY
ROOT ui
{
	 OFFSET 0 0 0
	 CHANNELS 3 XPosition YPosition Z Position
	 EndSite
	 {
	 OFFSET 0 -1 0
	 }
}
ROOT li
{
	 OFFSET 0 0 0
	 CHANNELS 3 XPosition YPosition Z Position
	 EndSite
	 {
	 OFFSET 0 -1 0
	 }
}
ROOT ul
{
	 OFFSET 0 0 0
	 CHANNELS 3 XPosition YPosition Z Position
	 EndSite
	 {
	 OFFSET 0 -1 0
	 }
}
ROOT ll
{
	 OFFSET 0 0 0
	 CHANNELS 3 XPosition YPosition Z Position
	 EndSite
	 {
	 OFFSET 0 -1 0
	 }
}
ROOT tt
{
	 OFFSET 0 0 0
	 CHANNELS 3 XPosition YPosition Z Position
	 EndSite
	 {
	 OFFSET 0 -1 0
	 }
}
ROOT tb
{
	 OFFSET 0 0 0
	 CHANNELS 3 XPosition YPosition Z Position
	 EndSite
	 {
	 OFFSET 0 -1 0
	 }
}
ROOT td
{
	 OFFSET 0 0 0
	 CHANNELS 3 XPosition YPosition Z Position
	 EndSite
	 {
	 OFFSET 0 -1 0
	 }
}
ROOT v
{
	 OFFSET 0 0 0
	 CHANNELS 3 XPosition YPosition Z Position
	 EndSite
	 {
	 OFFSET 0 -1 0
	 }
}
ROOT bn
{
	 OFFSET 0 0 0
	 CHANNELS 3 XPosition YPosition Z Position
	 EndSite
	 {
	 OFFSET 0 -1 0
	 }
}
MOTION
Frames: 18
Frame Time: 0.002
-0.009666378974914552	-1.2101700156927109E-4	0		0.5542322387695312	-2.68406640625	0		-0.9866741943359375	-0.0784263916015625	0		-0.32166921997070314	-3.171612060546875	0		1.838278564453125	-0.9343182373046875	0		3.128323974609375	-0.35372564697265624	0		4.2807744140625	-0.07250676727294922	0		5.8053896484375	0.2202560577392578	0		-0.21963700866699218	5.84881298828125	0		
-0.006641516208648682	0.003854526996612549	0		0.533265869140625	-2.674814453125	0		-0.978615234375	-0.07149176788330078	0		-0.33769357299804686	-3.166402587890625	0		1.8438486328125	-0.883406494140625	0		3.096896240234375	-0.3033954772949219	0		4.28398974609375	-0.052617000579833983	0		5.8004794921875	0.22921250915527344	0		-0.20356968688964844	5.84663720703125	0		
-0.009730154037475586	-1.0255800187587739E-4	0		0.573164794921875	-2.676297607421875	0		-0.9905363159179688	-0.06132529830932617	0		-0.3010789794921875	-3.1908330078125	0		1.8414537353515625	-0.828399169921875	0		3.07594775390625	-0.29518975830078126	0		4.27414111328125	-0.03656406784057617	0		5.79635888671875	0.2221693572998047	0		-0.23855711364746093	5.84306787109375	0		
0.016212577819824218	-4.1468599438667297E-4	0		0.5191365966796875	-2.670656005859375	0		-0.9905925903320313	-0.061311248779296876	0		-0.30521408081054685	-3.193780029296875	0		1.8359886474609375	-0.7783555908203125	0		3.095283935546875	-0.2624625549316406	0		4.2531708984375	-0.029370452880859373	0		5.796306640625	0.22208998107910155	0		-0.0721953125	5.8700732421875	0		
0.009062697410583496	-0.007336748123168945	0		0.5460164184570313	-2.672992919921875	0		-0.985611572265625	-0.057367977142333985	0		-0.30938565063476564	-3.199735107421875	0		1.84252783203125	-0.7274573974609375	0		3.092504150390625	-0.23846733093261718	0		4.25717626953125	-0.02347032165527344	0		5.78313525390625	0.21317962646484376	0		-0.22439344787597656	5.85489794921875	0		
-0.009925983428955077	-1.2276700139045717E-4	0		0.4980699462890625	-2.66043408203125	0		-1.0485372314453125	-0.04461691284179688	0		-0.3115080871582031	-3.20172265625	0		1.8470257568359374	-0.6795372314453125	0		3.066080322265625	-0.18418368530273438	0		4.24734326171875	-0.0033977580070495604	0		5.79614599609375	0.21996458435058594	0		-0.2064730224609375	5.8506689453125	0		
0.015990843772888185	-4.5772698521614075E-4	0		0.54403173828125	-2.656012939453125	0		-1.0545579833984375	-0.0395612564086914	0		-0.31465399169921876	-3.205706298828125	0		1.8496396484375	-0.621596923828125	0		3.0712626953125	-0.162283203125	0		4.245599609375	0.024580490112304686	0		5.78806640625	0.2200091094970703	0		-0.24059371948242186	5.84505810546875	0		
-0.010095049858093261	-1.7291100323200227E-4	0		0.5070701904296875	-2.64459814453125	0		-0.985602783203125	-0.03641808700561523	0		-0.2977418823242188	-3.204938720703125	0		1.8459840087890624	-0.5855861206054688	0		3.082595458984375	-0.12745728302001952	0		4.24551171875	0.024537532806396485	0		5.79189453125	0.2129132080078125	0		-0.20657969665527343	5.8516201171875	0		
0.015808624267578127	-5.207099914550781E-4	0		0.5069703674316406	-2.644633544921875	0		-1.0606798095703125	-0.03454645919799805	0		-0.3348521728515625	-3.2055263671875	0		1.8465513916015626	-0.5306282348632813	0		3.06479150390625	-0.10328268432617188	0		4.23075634765625	0.05267331314086914	0		5.78280126953125	0.21297555541992189	0		-0.20765013122558593	5.85259814453125	0		
-0.010291465759277344	-2.466229945421219E-4	0		0.5089018249511719	-2.64169775390625	0		-0.9857992553710937	-0.03648886108398437	0		-0.27108251953125	-3.21633642578125	0		1.8499791259765626	-0.4867087707519531	0		3.042064697265625	-0.0720500259399414	0		4.22681103515625	0.06567707824707031	0		5.78269970703125	0.21293051147460937	0		-0.20675848388671875	5.85154736328125	0		
-0.010402171134948731	-2.8987500071525575E-4	0		0.5148623046875	-2.63581396484375	0		-1.0568565673828125	-0.03167616844177246	0		-0.367994140625	-3.199211181640625	0		1.6854227294921875	-0.4397665710449219	0		3.060254150390625	-0.04731292724609375	0		4.222857421875	0.07867995452880859	0		5.80155126953125	0.20965684509277344	0		-0.19174812316894532	5.861322265625	0		
-0.007473875999450683	0.0036275620460510254	0		0.5099360046386718	-2.619801025390625	0		-0.984776611328125	-0.015591593742370605	0		-0.26625369262695314	-3.211486328125	0		1.69780859375	-0.39796029663085936	0		3.04772607421875	0.0017943170070648193	0		4.2330625	0.10551158142089843	0		5.7924443359375	0.21071951293945312	0		-0.19384393310546874	5.86330029296875	0		
0.015348836898803711	-6.974949836730957E-4	0		0.49888150024414063	-2.613716796875	0		-0.9989391479492188	-0.018470563888549806	0		-0.34719464111328124	-3.195558837890625	0		1.675984130859375	-0.3727450866699219	0		3.0067705078125	0.016239253997802735	0		4.2209482421875	0.10660773468017579	0		5.77842626953125	0.21983905029296874	0		-0.2090902557373047	5.85343359375	0		
-0.01078230094909668	-4.3342500925064087E-4	0		0.49874636840820313	-2.6137666015625	0		-0.9990722045898438	-0.018519147872924805	0		-0.28346755981445315	-3.20737890625	0		1.7310277099609375	-0.3584600524902344	0		3.023973876953125	0.04398042297363281	0		4.21998388671875	0.12056596374511719	0		5.782208984375	0.21273725891113282	0		-0.20921855163574218	5.853384765625	0		
-0.010918883323669434	-4.8362600803375245E-4	0		0.4736663513183594	-2.608516845703125	0		-1.0811304931640624	-0.011578862190246581	0		-0.33863104248046877	-3.20876513671875	0		1.6825692138671875	-0.30192715454101565	0		3.030957275390625	0.05383865356445312	0		4.21008984375	0.1406259307861328	0		5.7748564453125	0.19476051330566407	0		-0.2282810516357422	5.8585634765625	0		
0.014941789627075196	-8.476979732513428E-4	0		0.4786026611328125	-2.6016298828125	0		-1.0052855834960936	-0.013541763305664062	0		-0.30178387451171873	-3.209260498046875	0		1.8063853759765625	-0.3064798583984375	0		3.0104248046875	0.10402584075927734	0		4.21502490234375	0.14649801635742188	0		5.777828125	0.20365029907226562	0		-0.19630108642578126	5.86612744140625	0		
-0.008143197059631348	0.0033794269561767576	0		0.46370596313476564	-2.580503662109375	0		-1.0841976318359374	0.005366611957550049	0		-0.34575469970703127	-3.19377880859375	0		1.7904669189453124	-0.2883494873046875	0		3.007339111328125	0.1079927978515625	0		4.20514501953125	0.16754066467285156	0		5.76888818359375	0.2196714324951172	0		-0.21151882934570312	5.85626025390625	0		
0.014677494049072266	-9.471070170402527E-4	0		0.4905272216796875	-2.5828828125	0		-1.0123804321289063	4.5794498920440676E-4	0		-0.2800263366699219	-3.203621337890625	0		1.7813597412109374	-0.28630615234375	0		3.042642822265625	0.14349124145507813	0		4.21801611328125	0.16729664611816406	0		5.78245751953125	0.19440309143066406	0		-0.21258326721191406	5.85722509765625	0		
